<?xml version="1.0" ?><!DOCTYPE svg  PUBLIC '-//W3C//DTD SVG 1.1//EN'  'http://www.w3.org/Graphics/SVG/1.1/DTD/svg11.dtd'><svg enable-background="new 0 0 200 200" height="200px" id="Layer_1" version="1.1" viewBox="0 0 200 200" width="200px" xml:space="preserve" xmlns="http://www.w3.org/2000/svg" xmlns:xlink="http://www.w3.org/1999/xlink"><g><path d="M49.186,158.672c0,1.231,1.003,2.239,2.235,2.239h65.668v-4.475H51.421   C50.189,156.437,49.186,157.444,49.186,158.672z" fill="#5E889E"/><path d="M105.018,138.252H51.421c-1.231,0-2.235,1.008-2.235,2.235c0,1.231,1.003,2.239,2.235,2.239h65.668v-1.592   h-4.254C109.896,141.135,107.149,140.075,105.018,138.252z" fill="#5E889E"/><rect fill="#5E889E" height="30.332" width="13.115" x="115.661" y="21.472"/><path d="M33.806,173.43v-65.881c0-2.459,2.017-4.47,4.472-4.47h83.549l23.63-23.635   c2.291-2.283,5.31-3.526,8.517-3.526c3.211,0,6.233,1.248,8.505,3.519l16.381,16.377V50.064c0-1.711-0.324-3.451-1.02-5.134   c-0.7-1.679-1.695-3.139-2.911-4.35l-30.083-30.083c-1.212-1.212-2.671-2.211-4.351-2.907c-1.684-0.695-3.423-1.023-5.134-1.023   H13.417c-3.435,0-6.871,1.312-9.486,3.931C1.308,13.116,0,16.55,0,19.981v152.03c0,3.435,1.308,6.869,3.931,9.487   c2.615,2.619,6.051,3.927,9.486,3.927h103.672V177.9H38.278C35.823,177.9,33.806,175.889,33.806,173.43z M43.716,19.089   c0-1.147,0.434-2.291,1.309-3.163c0.874-0.876,2.02-1.312,3.159-1.312h82.487c1.144,0,2.291,0.436,3.163,1.312   c0.872,0.872,1.304,2.015,1.304,3.163v35.098c0,1.147-0.432,2.291-1.304,3.163s-2.02,1.312-3.163,1.312H48.184   c-1.139,0-2.285-0.44-3.159-1.312c-0.875-0.872-1.309-2.015-1.309-3.163V19.089z M13.417,177.9c-3.254,0-5.892-2.636-5.892-5.89   c0-3.251,2.637-5.886,5.892-5.886c3.249,0,5.888,2.635,5.888,5.886C19.304,175.265,16.665,177.9,13.417,177.9z" fill="#5E889E"/><path d="M49.186,122.303c0,1.231,1.003,2.239,2.235,2.239h50.27c0.593-1.451,1.477-2.803,2.632-3.958l0.512-0.513   H51.421C50.189,120.071,49.186,121.075,49.186,122.303z" fill="#5E889E"/><path d="M198.567,125.642l-41.14-41.139c-0.883-0.884-2.103-1.432-3.454-1.432s-2.571,0.548-3.459,1.432   l-41.139,41.139c-1.355,1.355-1.835,3.446-1.056,5.325c0.775,1.88,2.599,3.016,4.515,3.016h11.411v54.569   c0,1.247,0.479,2.499,1.432,3.45c0.955,0.956,2.203,1.432,3.454,1.432h49.68c1.251,0,2.503-0.476,3.458-1.432   c0.952-0.951,1.432-2.203,1.432-3.45v-54.569h11.411c1.92,0,3.734-1.136,4.515-3.016   C200.406,129.088,199.923,126.997,198.567,125.642z" fill="#5E889E"/></g></svg>